<?xml version="1.0" encoding="UTF-8"?>
<svg id="Layer_1" data-name="Layer 1" xmlns="http://www.w3.org/2000/svg" version="1.1" viewBox="0 0 128 128">
  <defs>
    <style>
      .cls-1 {
        fill: #2f87c3;
      }

      .cls-1, .cls-2, .cls-3, .cls-4, .cls-5, .cls-6, .cls-7, .cls-8 {
        stroke-width: 0px;
      }

      .cls-2 {
        fill: #006670;
      }

      .cls-3 {
        fill: #dc0d15;
      }

      .cls-4 {
        fill: #12100b;
      }

      .cls-9 {
        fill: none;
        stroke: #dbebdb;
        stroke-miterlimit: 10;
        stroke-width: 2px;
      }

      .cls-5 {
        fill: #fee700;
      }

      .cls-6 {
        fill: #981d6c;
      }

      .cls-7 {
        fill: #00973f;
      }

      .cls-8 {
        fill: #ffcf16;
      }
    </style>
  </defs>
  <path class="cls-8" d="M154.3-200.8c17.1,0,30.9,13.8,30.9,30.9s-13.8,30.9-30.9,30.9-30.9-13.8-30.9-30.9,13.8-30.9,30.9-30.9Z"/>
  <g>
    <path class="cls-2" d="M64,0c35.4,0,64,28.6,64,64s-28.6,64-64,64S0,99.4,0,64,28.6,0,64,0Z"/>
    <g id="_103_hospital_bed_patient" data-name="103, hospital, bed, patient">
      <g>
        <path class="cls-8" d="M47.5,74.5c3.8,0,7-3.2,7-6.9s-3.2-6.9-7-6.9-7,3.2-7,6.9,3,6.9,7,6.9Z"/>
        <path class="cls-8" d="M99.3,53.8c-1.6,0-3,1.3-3,3v15.6c-2.6-7.4-9.6-12.8-18-12.8h-20.9v17.8h38.9v2.1h-61.9v-46.4c0-1.6-1.3-3-3-3s-3,1.3-3,3v60.1h6.1v-7.9h61.9v7.9h6.1v-36.4c-.2-1.7-1.4-3-3-3Z"/>
      </g>
    </g>
  </g>
  <path class="cls-2" d="M163.2-165h-2.5v2.5h2.5v-2.5Z"/>
  <path class="cls-2" d="M147.9-165h-2.5v2.5h2.5v-2.5Z"/>
  <path class="cls-2" d="M158.4-165h-8.3v2.5h8.3v-2.5Z"/>
  <path class="cls-2" d="M164.7-159.2h-20.8c-.6,0-.9-.3-.9-.9v-7.2c0-.5.3-.9.9-.9h20.8c.6,0,.9.4.9.9v7.2c0,.6-.4.9-.9.9ZM147.6-155.1c0,.6-.3.9-1,.9s-1-.3-1-.9v-1.5h2v1.5ZM162.9-155.1c0,.6-.2.9-1,.9s-1-.3-1-.9v-1.5h2v1.5ZM165.6-156.7c1.6,0,2.5-1,2.5-2.6v-20.9c.6,0,.9.3.9.9v3.2l2.5-.3v-3.7c0-1.3-1-2.5-2.5-2.5h-.9v-2.5c0-1.5-.8-2.5-2.5-2.5h-1.9l-.9,2.5h1.9c.6,0,.9.3.9.9v13.6h-22.6v-13.6c0-.5.3-.9.9-.9h11.2l-2,5.8,2.1.7,2.2-6.4h.8l-1.8,5.3,2.1.7,2.9-8.6h-18.4c-1.8,0-2.6,1-2.6,2.6v2.5h-.8c-1.6,0-2.5,1-2.5,2.6v3.7l2.5.3v-3.1c0-.6.4-.9.9-.9v21c0,1.4,1.2,2.5,2.6,2.5h.4v1.6c0,1.7.6,3.1,3.2,3.1s3.2-1.2,3.2-3.1v-1.6h8.8v1.6c0,1.9.7,3.1,3.2,3.1s3.2-1.3,3.2-3.1v-1.6h.5-.1Z"/>
  <path class="cls-4" d="M288.6-28.9c0,17-14,30.7-31.3,30.7s-31.3-13.8-31.3-30.7,14-30.7,31.3-30.7,31.3,13.8,31.3,30.7"/>
  <path class="cls-3" d="M264.6-38.1c-.8,0-1.4.5-1.8,1.2l-5.7,10.7,3,5.6c.3.5.7.8,1.2.9.1,0,.3,0,.4,0h0,0c.8,0,1.4-.5,1.8-1.2l8.6-16.2c.3-.5.8-.9,1.3-1,.1,0,.3,0,.4,0h-9.3"/>
  <path class="cls-1" d="M253-19.7c.5-.1.9-.5,1.2-.9l3-5.6-5.7-10.7c-.4-.7-1-1.1-1.7-1.2-.1,0-.3,0-.4,0-.5.1-.9.5-1.2.9,0,0-2.2,4-3.1,5.7l5.6,10.6c.4.7,1,1.2,1.8,1.2h0c.2,0,.3,0,.4,0"/>
  <path class="cls-7" d="M281.8-25.4s-6-11.4-6.1-11.5c-.4-.7-1-1.2-1.8-1.2h0c-.2,0-.3,0-.4,0-.5.1-1,.5-1.3,1.1l-2.9,5.5c2.3,4.4,5.1,9.7,5.1,9.7,1.1,2,3.5,2.8,5.6,1.7,2-1,2.8-3.4,1.8-5.4"/>
  <path class="cls-5" d="M248.9-38.1h-8.2c-.8,0-1.4.5-1.8,1.2,0,.1-6.1,11.5-6.1,11.5-1,2-.2,4.3,1.8,5.4,2,1,4.5.3,5.6-1.7l4.7-8.8s3.4-6.4,3.4-6.5c.3-.5.7-.8,1.2-.9.1,0,.3,0,.4,0h-1"/>
  <path class="cls-6" d="M261.8-19.6c-.2,0-.3,0-.4,0-.5-.1-.9-.5-1.2-.9l-3-5.6-3,5.6c-.3.5-.7.8-1.2.9-.1,0-.3,0-.4,0h9.3"/>
  <path class="cls-2" d="M366.4-28.7c0,16.8-13.7,30.6-30.6,30.6s-30.6-13.7-30.6-30.6,13.7-30.6,30.6-30.6,30.6,13.7,30.6,30.6Z"/>
  <path class="cls-9" d="M356.1-20c-6.1-2-12-3.9-18-5.9v9.4c0,.3,0,.4.3.5,1.3,1,2.5,1.9,3.6,2.9.2.2.3.3.3.5v3.3h-.4c-1.8-.5-3.7-1.2-5.6-1.7-.4,0-.6,0-1,0-1.8.5-3.5,1.1-5.4,1.6-.2,0-.3,0-.5.2v-3.4c0-.3,0-.5.3-.6,1.2-1,2.5-1.9,3.6-2.9,0,0,.2-.3.2-.4v-9.6c-6,2-12,3.9-18.1,5.9v-4.3c0-.3,0-.5.4-.6,3.4-2.1,6.8-4.1,10.2-6.2,2.3-1.4,4.6-2.7,6.8-4.2.5-.3.7-.5.6-1.1v-11.7c0-.5,0-.9,0-1.4,0-.8.9-1.5,1.7-1.6,1.5-.2,2.6.8,2.7,2.2v12.9c0,.3,0,.4.3.5,1.6,1,3.3,2,4.9,3,4.2,2.5,8.5,5.1,12.7,7.6.3.2.4.3.4.5v4.4h0Z"/>
</svg>