<?xml version="1.0" encoding="UTF-8"?>
<svg id="Layer_1" data-name="Layer 1" xmlns="http://www.w3.org/2000/svg" version="1.1" viewBox="0 0 128 128">
  <defs>
    <style>
      .cls-1 {
        fill: #2f87c3;
      }

      .cls-1, .cls-2, .cls-3, .cls-4, .cls-5, .cls-6, .cls-7, .cls-8 {
        stroke-width: 0px;
      }

      .cls-2 {
        fill: #006670;
      }

      .cls-3 {
        fill: #dc0d15;
      }

      .cls-4 {
        fill: #12100b;
      }

      .cls-9 {
        fill: none;
        stroke: #dbebdb;
        stroke-miterlimit: 10;
        stroke-width: 2px;
      }

      .cls-5 {
        fill: #fee700;
      }

      .cls-6 {
        fill: #981d6c;
      }

      .cls-7 {
        fill: #00973f;
      }

      .cls-8 {
        fill: #ffcf16;
      }
    </style>
  </defs>
  <path class="cls-8" d="M64,0c35.4,0,64,28.6,64,64s-28.6,64-64,64S0,99.4,0,64,28.6,0,64,0Z"/>
  <g>
    <path class="cls-2" d="M-140.2-44.9c35.4,0,64,28.6,64,64s-28.6,64-64,64-64-28.6-64-64,28.6-64,64-64Z"/>
    <g id="_103_hospital_bed_patient" data-name="103, hospital, bed, patient">
      <g>
        <path class="cls-8" d="M-156.7,29.6c3.8,0,7-3.2,7-6.9s-3.2-6.9-7-6.9-7,3.2-7,6.9,3,6.9,7,6.9Z"/>
        <path class="cls-8" d="M-104.9,8.9c-1.6,0-3,1.3-3,3v15.6c-2.6-7.4-9.6-12.8-18-12.8h-20.9v17.8h38.9v2.1h-61.9V-11.7c0-1.6-1.3-3-3-3s-3,1.3-3,3v60.1h6.1v-7.9h61.9v7.9h6.1V11.9c-.2-1.7-1.4-3-3-3Z"/>
      </g>
    </g>
  </g>
  <path class="cls-2" d="M82.4,74.2h-5.2v5.2h5.2v-5.2Z"/>
  <path class="cls-2" d="M50.7,74.2h-5.2v5.2h5.2v-5.2Z"/>
  <path class="cls-2" d="M72.4,74.2h-17.2v5.2h17.2v-5.2Z"/>
  <path class="cls-2" d="M85.4,86.1h-43.1c-1.3,0-1.8-.7-1.8-1.8v-15c0-1,.6-1.8,1.9-1.8h43c1.2,0,1.8.9,1.8,1.8v15c0,1.1-.8,1.8-1.8,1.8ZM50.1,94.6c0,1.2-.7,1.8-2.1,1.8s-2-.7-2-1.8v-3.2h4.1v3.2ZM81.8,94.6c0,1.1-.5,1.8-2.1,1.8s-2-.7-2-1.8v-3.2h4.1v3.2ZM87.3,91.5c3.3,0,5.2-2.1,5.2-5.3v-43.4c1.2,0,1.8.7,1.8,1.8v6.6l5.2-.7v-7.7c0-2.8-2.1-5.2-5.2-5.2h-1.8v-5.2c0-3.1-1.6-5.2-5.2-5.2h-3.9l-1.8,5.2h3.9c1.3,0,1.8.7,1.8,1.9v28.2h-46.7v-28.2c0-1,.7-1.9,1.9-1.9h23.2l-4.1,11.9,4.4,1.4,4.6-13.4h1.6l-3.8,11,4.4,1.4,6.1-17.7h-38.2c-3.7,0-5.3,2.1-5.3,5.3v5.2h-1.7c-3.2,0-5.2,2.1-5.2,5.3v7.6l5.2.7v-6.5c0-1.3.9-1.8,1.8-1.8v43.5c0,3,2.5,5.2,5.3,5.2h.9v3.2c0,3.5,1.3,6.4,6.7,6.4s6.7-2.5,6.7-6.4v-3.2h18.3v3.2c0,3.9,1.4,6.4,6.7,6.4s6.7-2.7,6.7-6.4v-3.2h1-.3Z"/>
  <path class="cls-4" d="M288.6-28.9c0,17-14,30.7-31.3,30.7s-31.3-13.8-31.3-30.7,14-30.7,31.3-30.7,31.3,13.8,31.3,30.7"/>
  <path class="cls-3" d="M264.6-38.1c-.8,0-1.4.5-1.8,1.2l-5.7,10.7,3,5.6c.3.5.7.8,1.2.9.1,0,.3,0,.4,0h0,0c.8,0,1.4-.5,1.8-1.2l8.6-16.2c.3-.5.8-.9,1.3-1,.1,0,.3,0,.4,0h-9.3"/>
  <path class="cls-1" d="M253-19.7c.5-.1.9-.5,1.2-.9l3-5.6-5.7-10.7c-.4-.7-1-1.1-1.7-1.2-.1,0-.3,0-.4,0-.5.1-.9.5-1.2.9,0,0-2.2,4-3.1,5.7l5.6,10.6c.4.7,1,1.2,1.8,1.2h0c.2,0,.3,0,.4,0"/>
  <path class="cls-7" d="M281.8-25.4s-6-11.4-6.1-11.5c-.4-.7-1-1.2-1.8-1.2h0c-.2,0-.3,0-.4,0-.5.1-1,.5-1.3,1.1l-2.9,5.5c2.3,4.4,5.1,9.7,5.1,9.7,1.1,2,3.5,2.8,5.6,1.7,2-1,2.8-3.4,1.8-5.4"/>
  <path class="cls-5" d="M248.9-38.1h-8.2c-.8,0-1.4.5-1.8,1.2,0,.1-6.1,11.5-6.1,11.5-1,2-.2,4.3,1.8,5.4,2,1,4.5.3,5.6-1.7l4.7-8.8s3.4-6.4,3.4-6.5c.3-.5.7-.8,1.2-.9.1,0,.3,0,.4,0h-1"/>
  <path class="cls-6" d="M261.8-19.6c-.2,0-.3,0-.4,0-.5-.1-.9-.5-1.2-.9l-3-5.6-3,5.6c-.3.5-.7.8-1.2.9-.1,0-.3,0-.4,0h9.3"/>
  <path class="cls-2" d="M366.4-28.7c0,16.8-13.7,30.6-30.6,30.6s-30.6-13.7-30.6-30.6,13.7-30.6,30.6-30.6,30.6,13.7,30.6,30.6Z"/>
  <path class="cls-9" d="M356.1-20c-6.1-2-12-3.9-18-5.9v9.4c0,.3,0,.4.3.5,1.3,1,2.5,1.9,3.6,2.9.2.2.3.3.3.5v3.3h-.4c-1.8-.5-3.7-1.2-5.6-1.7-.4,0-.6,0-1,0-1.8.5-3.5,1.1-5.4,1.6-.2,0-.3,0-.5.2v-3.4c0-.3,0-.5.3-.6,1.2-1,2.5-1.9,3.6-2.9,0,0,.2-.3.2-.4v-9.6c-6,2-12,3.9-18.1,5.9v-4.3c0-.3,0-.5.4-.6,3.4-2.1,6.8-4.1,10.2-6.2,2.3-1.4,4.6-2.7,6.8-4.2.5-.3.7-.5.6-1.1v-11.7c0-.5,0-.9,0-1.4,0-.8.9-1.5,1.7-1.6,1.5-.2,2.6.8,2.7,2.2v12.9c0,.3,0,.4.3.5,1.6,1,3.3,2,4.9,3,4.2,2.5,8.5,5.1,12.7,7.6.3.2.4.3.4.5v4.4h0Z"/>
</svg>