<?xml version="1.0" encoding="UTF-8"?>
<svg id="Layer_1" data-name="Layer 1" xmlns="http://www.w3.org/2000/svg" version="1.1" viewBox="0 0 128 128">
  <defs>
    <style>
      .cls-1 {
        fill: #2f87c3;
      }

      .cls-1, .cls-2, .cls-3, .cls-4, .cls-5, .cls-6, .cls-7, .cls-8 {
        stroke-width: 0px;
      }

      .cls-2 {
        fill: #006670;
      }

      .cls-3 {
        fill: #dc0d15;
      }

      .cls-4 {
        fill: #12100b;
      }

      .cls-9 {
        fill: none;
        stroke: #dbebdb;
        stroke-miterlimit: 10;
        stroke-width: 2px;
      }

      .cls-5 {
        fill: #fee700;
      }

      .cls-6 {
        fill: #981d6c;
      }

      .cls-7 {
        fill: #00973f;
      }

      .cls-8 {
        fill: #ffcf16;
      }
    </style>
  </defs>
  <path class="cls-8" d="M-59.8,217.1c35.4,0,64,28.6,64,64s-28.6,64-64,64-64-28.6-64-64,28.6-64,64-64Z"/>
  <g>
    <path class="cls-2" d="M-140.2-44.9c35.4,0,64,28.6,64,64s-28.6,64-64,64-64-28.6-64-64,28.6-64,64-64Z"/>
    <g id="_103_hospital_bed_patient" data-name="103, hospital, bed, patient">
      <g>
        <path class="cls-8" d="M-156.7,29.6c3.8,0,7-3.2,7-6.9s-3.2-6.9-7-6.9-7,3.2-7,6.9,3,6.9,7,6.9Z"/>
        <path class="cls-8" d="M-104.9,8.9c-1.6,0-3,1.3-3,3v15.6c-2.6-7.4-9.6-12.8-18-12.8h-20.9v17.8h38.9v2.1h-61.9V-11.7c0-1.6-1.3-3-3-3s-3,1.3-3,3v60.1h6.1v-7.9h61.9v7.9h6.1V11.9c-.2-1.7-1.4-3-3-3Z"/>
      </g>
    </g>
  </g>
  <path class="cls-2" d="M-41.4,291.3h-5.2v5.2h5.2v-5.2Z"/>
  <path class="cls-2" d="M-73.1,291.3h-5.2v5.2h5.2v-5.2Z"/>
  <path class="cls-2" d="M-51.3,291.3h-17.2v5.2h17.2v-5.2Z"/>
  <path class="cls-2" d="M-38.3,303.2h-43.1c-1.3,0-1.8-.7-1.8-1.8v-15c0-1,.6-1.8,1.9-1.8h43c1.2,0,1.8.9,1.8,1.8v15c0,1.1-.8,1.8-1.8,1.8ZM-73.6,311.7c0,1.2-.7,1.8-2.1,1.8s-2-.7-2-1.8v-3.2h4.1v3.2ZM-42,311.7c0,1.1-.5,1.8-2.1,1.8s-2-.7-2-1.8v-3.2h4.1v3.2ZM-36.4,308.6c3.3,0,5.2-2.1,5.2-5.3v-43.4c1.2,0,1.8.7,1.8,1.8v6.6l5.2-.7v-7.7c0-2.8-2.1-5.2-5.2-5.2h-1.8v-5.2c0-3.1-1.6-5.2-5.2-5.2h-3.9l-1.8,5.2h3.9c1.3,0,1.8.7,1.8,1.9v28.2h-46.7v-28.2c0-1,.7-1.9,1.9-1.9h23.2l-4.1,11.9,4.4,1.4,4.6-13.4h1.6l-3.8,11,4.4,1.4,6.1-17.7h-38.2c-3.7,0-5.3,2.1-5.3,5.3v5.2h-1.7c-3.2,0-5.2,2.1-5.2,5.3v7.6l5.2.7v-6.5c0-1.3.9-1.8,1.8-1.8v43.5c0,3,2.5,5.2,5.3,5.2h.9v3.2c0,3.5,1.3,6.4,6.7,6.4s6.7-2.5,6.7-6.4v-3.2h18.3v3.2c0,3.9,1.4,6.4,6.7,6.4s6.7-2.7,6.7-6.4v-3.2h1-.3Z"/>
  <g>
    <path class="cls-4" d="M128,64c0,34.7-28.7,62.9-64,62.9S0,98.7,0,64,28.7,1.1,64,1.1s64,28.2,64,62.9"/>
    <path class="cls-3" d="M79,45.1c-1.5,0-2.9,1-3.6,2.4l-11.6,21.9,6.1,11.5c.6,1,1.5,1.7,2.5,1.9.3,0,.6.1.9.1h0,0c1.5,0,2.9-1,3.6-2.4l17.5-33.2c.6-1.1,1.6-1.9,2.7-2.1.3,0,.6-.1.9-.1h-19"/>
    <path class="cls-1" d="M55.2,82.8c1-.3,1.9-.9,2.5-1.9l6.1-11.5-11.6-21.9c-.7-1.4-2-2.3-3.5-2.4-.3,0-.5,0-.8.1-1,.3-1.9.9-2.5,1.9-.1.1-4.4,8.3-6.2,11.7l11.4,21.7c.8,1.4,2.1,2.4,3.6,2.4h0c.3,0,.6,0,.9-.1"/>
    <path class="cls-7" d="M114.2,71s-12.3-23.3-12.5-23.6c-.8-1.4-2.1-2.4-3.6-2.4h0c-.3,0-.6,0-.9.1-1.1.3-2.1,1.1-2.7,2.2l-5.9,11.2c4.7,9,10.5,19.9,10.5,19.9,2.2,4.1,7.2,5.6,11.4,3.5,4-2.1,5.7-6.9,3.7-11"/>
    <path class="cls-5" d="M46.8,45.1h-16.9c-1.5,0-2.9,1-3.6,2.4-.1.3-12.4,23.5-12.4,23.5-2,4-.4,8.9,3.7,11,4.1,2.1,9.2.5,11.4-3.5l9.6-18.1s6.9-13.1,7-13.3c.6-1,1.5-1.7,2.5-1.9.3,0,.6-.1.9-.1h-2.1"/>
    <path class="cls-6" d="M73.3,82.9c-.3,0-.6,0-.9-.1-1-.3-1.9-.9-2.5-1.9l-6.1-11.5-6.1,11.5c-.6,1-1.5,1.6-2.5,1.9-.3,0-.6.1-.9.1h19"/>
  </g>
  <path class="cls-2" d="M366.4-28.7c0,16.8-13.7,30.6-30.6,30.6s-30.6-13.7-30.6-30.6,13.7-30.6,30.6-30.6,30.6,13.7,30.6,30.6Z"/>
  <path class="cls-9" d="M356.1-20c-6.1-2-12-3.9-18-5.9v9.4c0,.3,0,.4.3.5,1.3,1,2.5,1.9,3.6,2.9.2.2.3.3.3.5v3.3h-.4c-1.8-.5-3.7-1.2-5.6-1.7-.4,0-.6,0-1,0-1.8.5-3.5,1.1-5.4,1.6-.2,0-.3,0-.5.2v-3.4c0-.3,0-.5.3-.6,1.2-1,2.5-1.9,3.6-2.9,0,0,.2-.3.2-.4v-9.6c-6,2-12,3.9-18.1,5.9v-4.3c0-.3,0-.5.4-.6,3.4-2.1,6.8-4.1,10.2-6.2,2.3-1.4,4.6-2.7,6.8-4.2.5-.3.7-.5.6-1.1v-11.7c0-.5,0-.9,0-1.4,0-.8.9-1.5,1.7-1.6,1.5-.2,2.6.8,2.7,2.2v12.9c0,.3,0,.4.3.5,1.6,1,3.3,2,4.9,3,4.2,2.5,8.5,5.1,12.7,7.6.3.2.4.3.4.5v4.4h0Z"/>
</svg>